<svg xmlns="http://www.w3.org/2000/svg" xmlns:xlink="http://www.w3.org/1999/xlink" width="500" zoomAndPan="magnify" viewBox="0 0 375 374.999991" height="500" preserveAspectRatio="xMidYMid meet" version="1.0"><defs><g/></defs><path fill="#d2df64" d="M 42.242188 196.710938 C 42.242188 196.710938 162.605469 188.476562 163.429688 317.789062 C 34 316.96875 42.242188 196.710938 42.242188 196.710938 Z M 42.242188 196.710938 " fill-opacity="1" fill-rule="nonzero"/><path fill="#d2df64" d="M 170.46875 324.824219 L 163.386719 324.773438 C 121.636719 324.511719 89.167969 312.210938 66.871094 288.207031 C 31.964844 250.628906 35.117188 198.4375 35.265625 196.238281 L 35.6875 190.171875 L 41.769531 189.738281 C 41.769531 189.738281 43.480469 189.617188 46.511719 189.617188 C 67.066406 189.617188 169.648438 195.796875 170.429688 317.742188 Z M 49.191406 203.625 C 49.582031 217.894531 53.128906 252.925781 77.214844 278.796875 C 95.503906 298.429688 122.074219 309.117188 156.253906 310.621094 C 152.054688 214.761719 76.796875 204.21875 49.191406 203.625 Z M 49.191406 203.625 " fill-opacity="1" fill-rule="nonzero"/><path fill="#d2df64" d="M 185.613281 69.46875 C 185.613281 69.46875 276.550781 148.671875 185.613281 240.695312 C 94.679688 148.671875 185.613281 69.46875 185.613281 69.46875 Z M 185.613281 69.46875 " fill-opacity="1" fill-rule="nonzero"/><path fill="#d2df64" d="M 185.613281 250.636719 L 180.636719 245.601562 C 151.300781 215.921875 137.046875 184.28125 138.273438 151.558594 C 140.195312 100.328125 179.347656 65.648438 181.015625 64.199219 L 185.613281 60.195312 L 190.210938 64.199219 C 191.875 65.648438 231.03125 100.328125 232.953125 151.558594 C 234.175781 184.28125 219.925781 215.921875 190.585938 245.601562 Z M 185.613281 79.28125 C 175.777344 89.660156 153.519531 116.925781 152.25 152.207031 C 151.285156 179.015625 162.503906 205.339844 185.613281 230.554688 C 208.722656 205.339844 219.9375 179.015625 218.976562 152.207031 C 217.707031 116.925781 195.449219 89.660156 185.613281 79.28125 Z M 185.613281 79.28125 " fill-opacity="1" fill-rule="nonzero"/><path fill="#d2df64" d="M 332.367188 196.710938 C 332.367188 196.710938 212.019531 188.476562 211.1875 317.789062 C 340.617188 316.96875 332.367188 196.710938 332.367188 196.710938 Z M 332.367188 196.710938 " fill-opacity="1" fill-rule="nonzero"/><path fill="#d2df64" d="M 204.140625 324.824219 L 204.1875 317.742188 C 204.972656 195.796875 307.550781 189.617188 328.105469 189.617188 C 331.132812 189.617188 332.847656 189.738281 332.847656 189.738281 L 338.910156 190.171875 L 339.351562 196.238281 C 339.5 198.4375 342.652344 250.621094 307.742188 288.207031 C 285.453125 312.210938 252.980469 324.511719 211.222656 324.773438 Z M 325.445312 203.625 C 297.835938 204.21875 222.5625 214.746094 218.355469 310.617188 C 252.597656 309.117188 279.191406 298.394531 297.488281 278.695312 C 321.597656 252.742188 325.078125 217.847656 325.445312 203.625 Z M 325.445312 203.625 " fill-opacity="1" fill-rule="nonzero"/><path fill="#298636" d="M 93.429688 233.132812 C 64.144531 186.078125 78.671875 117.855469 78.386719 110.945312 C 77.683594 94.03125 97.039062 112.347656 116.382812 116.785156 C 126.089844 53.96875 173.949219 51.03125 208.480469 21.101562 C 221.875 9.484375 220.363281 0.0234375 225.5 1.441406 C 227.746094 2.0625 229.117188 3.507812 229.574219 5.804688 C 241.894531 67.574219 245.007812 65.585938 272.777344 115.464844 C 311.113281 184.320312 259.375 250.398438 215.058594 268.023438 C 194.472656 276.207031 187.367188 266.867188 200.167969 264.777344 C 241.65625 258.007812 291.761719 184.523438 249.492188 113.265625 C 228.539062 77.941406 221.808594 67.363281 217.945312 33.796875 C 216.613281 22.222656 217.691406 21.984375 216.214844 23.644531 C 192.445312 50.46875 159.847656 54.054688 140.292969 95.648438 C 135.59375 105.644531 132.808594 117.902344 132.570312 121.875 C 137.917969 123.695312 146.105469 126.121094 153.984375 129.761719 C 235.757812 167.515625 189.625 271.53125 183.144531 264.824219 C 186.4375 255.1875 187.089844 260.902344 192.617188 240.226562 C 207.363281 185.054688 178.902344 141.894531 131.730469 128.328125 C 128.894531 181.816406 143.53125 207.902344 173.699219 240.199219 C 174.675781 241.238281 173.414062 242.945312 172.152344 242.15625 C 137.410156 220.359375 111.710938 168.015625 115.644531 122.71875 C 80.636719 114.753906 90.742188 103.824219 94.457031 128.113281 C 97.632812 148.847656 99.058594 295.546875 217.261719 277.371094 C 265.726562 269.914062 283.648438 225.386719 291.109375 206.285156 C 291.964844 204.09375 295.269531 205.074219 294.78125 207.375 C 273.359375 308.816406 141.839844 310.917969 93.429688 233.132812 " fill-opacity="1" fill-rule="nonzero"/><path fill="#298636" d="M 202.957031 242.601562 C 235.542969 192.011719 221.582031 135.5 200.628906 104.285156 C 190.515625 89.210938 193.410156 86.144531 195.609375 87.4375 C 214.484375 98.523438 232.25 126.976562 229.917969 171.902344 C 228.003906 208.613281 207.996094 240.574219 203.839844 244.488281 C 202.90625 245.363281 201.054688 245.554688 202.957031 242.601562 " fill-opacity="1" fill-rule="nonzero"/><g fill="#d9d9d9" fill-opacity="1"><g transform="translate(49.440263, 343.846039)"><g><path d="M 22.203125 -15.34375 L 18.875 -19.390625 L 18.875 -6.71875 C 18.875 -4.84375 18.035156 -3.253906 16.359375 -1.953125 C 14.691406 -0.648438 12.679688 0 10.328125 0 L 10.328125 -34.65625 L 18.875 -36.875 L 18.875 -21.6875 L 26.1875 -21.6875 C 27.601562 -21.6875 28.644531 -22.1875 29.3125 -23.1875 C 29.976562 -24.195312 30.3125 -25.46875 30.3125 -27 C 30.3125 -28.414062 30.023438 -29.921875 29.453125 -31.515625 C 28.890625 -33.117188 28.066406 -34.617188 26.984375 -36.015625 C 25.910156 -37.421875 24.585938 -38.566406 23.015625 -39.453125 C 21.441406 -40.335938 19.644531 -40.78125 17.625 -40.78125 C 15.851562 -40.78125 14.179688 -40.59375 12.609375 -40.21875 C 11.035156 -39.851562 9.769531 -39.300781 8.8125 -38.5625 C 7.851562 -37.832031 7.375 -36.898438 7.375 -35.765625 L -1.1875 -38.640625 C -0.488281 -40.410156 0.726562 -41.875 2.46875 -43.03125 C 4.21875 -44.1875 6.296875 -45.046875 8.703125 -45.609375 C 11.109375 -46.179688 13.640625 -46.46875 16.296875 -46.46875 C 19.585938 -46.46875 22.597656 -45.898438 25.328125 -44.765625 C 28.054688 -43.628906 30.425781 -42.113281 32.4375 -40.21875 C 34.457031 -38.332031 36.019531 -36.207031 37.125 -33.84375 C 38.238281 -31.488281 38.796875 -29.082031 38.796875 -26.625 C 38.796875 -23.375 38.21875 -20.679688 37.0625 -18.546875 C 35.90625 -16.410156 34.046875 -15.34375 31.484375 -15.34375 Z M 22.203125 -15.34375 "/></g></g></g><g fill="#d9d9d9" fill-opacity="1"><g transform="translate(88.817304, 343.846039)"><g><path d="M 11.5 13.9375 C 9.144531 13.9375 7.128906 13.269531 5.453125 11.9375 C 3.785156 10.613281 2.953125 9.046875 2.953125 7.234375 L 2.953125 -43 L 11.5 -40.78125 L 11.5 4.28125 C 11.5 5.207031 11.816406 5.988281 12.453125 6.625 C 13.097656 7.269531 13.890625 7.59375 14.828125 7.59375 L 20.140625 7.59375 C 20.140625 8.625 19.867188 9.628906 19.328125 10.609375 C 18.785156 11.597656 18.082031 12.398438 17.21875 13.015625 C 16.363281 13.628906 15.414062 13.9375 14.375 13.9375 Z M 11.5 13.9375 "/></g></g></g><g fill="#d9d9d9" fill-opacity="1"><g transform="translate(102.090248, 343.846039)"><g><path d="M 22.71875 -43.296875 L 28.90625 -37.828125 L 23.015625 -31.859375 L 16.734375 -37.3125 Z M 9.296875 -43.296875 L 15.484375 -37.828125 L 9.59375 -31.859375 L 3.3125 -37.3125 Z M 11.71875 -12.6875 L 11.71875 -9.734375 C 11.71875 -8.796875 12.050781 -7.992188 12.71875 -7.328125 C 13.382812 -6.671875 14.1875 -6.34375 15.125 -6.34375 L 19.625 -6.34375 L 19.625 -27.28125 L 28.171875 -25.078125 L 28.171875 -9.734375 C 28.171875 -8.796875 28.476562 -7.992188 29.09375 -7.328125 C 29.707031 -6.671875 30.484375 -6.34375 31.421875 -6.34375 L 36.796875 -6.34375 C 36.796875 -4.769531 36.226562 -3.316406 35.09375 -1.984375 C 33.96875 -0.660156 32.617188 0 31.046875 0 L 28.171875 0 C 26.546875 0 25.066406 -0.316406 23.734375 -0.953125 C 22.410156 -1.597656 21.382812 -2.460938 20.65625 -3.546875 C 20.15625 -2.554688 19.453125 -1.71875 18.546875 -1.03125 C 17.640625 -0.34375 16.644531 0 15.5625 0 L 9.953125 0 C 8.140625 0 6.578125 -0.648438 5.265625 -1.953125 C 3.960938 -3.253906 3.3125 -4.84375 3.3125 -6.71875 L 3.3125 -15.5625 C 3.3125 -17.914062 3.925781 -19.953125 5.15625 -21.671875 C 6.382812 -23.398438 7.984375 -24.804688 9.953125 -25.890625 C 11.921875 -26.972656 13.960938 -27.707031 16.078125 -28.09375 L 19.25 -23.828125 C 16.59375 -22.546875 14.671875 -21.128906 13.484375 -19.578125 C 12.304688 -18.023438 11.71875 -15.726562 11.71875 -12.6875 Z M 11.71875 -12.6875 "/></g></g></g><g fill="#d9d9d9" fill-opacity="1"><g transform="translate(131.65981, 343.846039)"><g><path d="M 11.875 -20.875 L 11.875 -6.71875 C 11.875 -4.84375 11.035156 -3.253906 9.359375 -1.953125 C 7.691406 -0.648438 5.675781 0 3.3125 0 L 0 0 L 3.3125 -6.265625 L 3.3125 -25 L 11.875 -27.21875 L 11.875 -25.375 C 13 -26.601562 14.328125 -27.21875 15.859375 -27.21875 L 18.65625 -27.21875 C 21.019531 -27.21875 23.035156 -26.566406 24.703125 -25.265625 C 26.378906 -23.960938 27.21875 -22.375 27.21875 -20.5 L 27.21875 -7.234375 C 27.21875 -4.234375 27.804688 -1.957031 28.984375 -0.40625 C 30.160156 1.144531 32.078125 2.554688 34.734375 3.828125 L 31.5625 8.1875 C 29.445312 7.84375 27.394531 7.191406 25.40625 6.234375 C 23.414062 5.273438 21.789062 4.019531 20.53125 2.46875 C 19.28125 0.914062 18.65625 -0.890625 18.65625 -2.953125 L 18.65625 -17.546875 C 18.65625 -18.484375 18.347656 -19.269531 17.734375 -19.90625 C 17.117188 -20.550781 16.34375 -20.875 15.40625 -20.875 Z M 11.875 -20.875 "/></g></g></g><g fill="#d9d9d9" fill-opacity="1"><g transform="translate(160.27075, 343.846039)"><g><path d="M 11.875 9.59375 C 9.507812 9.59375 7.488281 8.925781 5.8125 7.59375 C 4.144531 6.269531 3.3125 4.695312 3.3125 2.875 L 3.3125 -44.390625 L 11.875 -42.1875 L 11.875 -26.46875 L 19.546875 -26.46875 C 19.546875 -25.4375 19.1875 -24.429688 18.46875 -23.453125 C 17.757812 -22.472656 16.828125 -21.675781 15.671875 -21.0625 C 14.515625 -20.445312 13.25 -20.140625 11.875 -20.140625 L 11.875 -0.078125 C 11.875 0.859375 12.191406 1.644531 12.828125 2.28125 C 13.472656 2.925781 14.257812 3.25 15.1875 3.25 L 25.296875 3.25 C 25.296875 4.28125 25.023438 5.285156 24.484375 6.265625 C 23.941406 7.253906 23.238281 8.054688 22.375 8.671875 C 21.519531 9.285156 20.578125 9.59375 19.546875 9.59375 Z M 11.875 9.59375 "/></g></g></g><g fill="#d9d9d9" fill-opacity="1"><g transform="translate(178.336812, 343.846039)"><g><path d="M 11.5 -35.765625 L 11.5 -9.65625 C 11.5 -8.726562 11.816406 -7.941406 12.453125 -7.296875 C 13.097656 -6.660156 13.890625 -6.34375 14.828125 -6.34375 L 20.28125 -6.34375 C 21.257812 -6.34375 22.066406 -6.6875 22.703125 -7.375 C 23.347656 -8.0625 23.671875 -8.894531 23.671875 -9.875 L 23.671875 -19.6875 L 32.15625 -17.84375 L 32.15625 2.5 C 32.15625 4.570312 31.523438 6.367188 30.265625 7.890625 C 29.015625 9.410156 27.414062 10.648438 25.46875 11.609375 C 23.53125 12.566406 21.484375 13.21875 19.328125 13.5625 L 16.15625 9.296875 C 18.8125 8.015625 20.726562 6.585938 21.90625 5.015625 C 23.082031 3.441406 23.671875 1.15625 23.671875 -1.84375 L 23.671875 -2.65625 C 22.390625 -0.882812 20.617188 0 18.359375 0 L 9.59375 0 C 7.769531 0 6.207031 -0.648438 4.90625 -1.953125 C 3.601562 -3.253906 2.953125 -4.84375 2.953125 -6.71875 L 2.953125 -33.84375 C 2.953125 -36.5 3.6875 -38.75 5.15625 -40.59375 C 6.632812 -42.4375 8.515625 -43.835938 10.796875 -44.796875 C 13.085938 -45.753906 15.4375 -46.234375 17.84375 -46.234375 C 20.75 -46.234375 23.441406 -45.664062 25.921875 -44.53125 C 28.398438 -43.40625 30.179688 -41.6875 31.265625 -39.375 L 22.71875 -36.5 C 22.71875 -38.226562 22.148438 -39.457031 21.015625 -40.1875 C 19.890625 -40.925781 18.585938 -41.296875 17.109375 -41.296875 C 15.785156 -41.296875 14.519531 -40.789062 13.3125 -39.78125 C 12.101562 -38.78125 11.5 -37.441406 11.5 -35.765625 Z M 11.5 -35.765625 "/></g></g></g><g fill="#d9d9d9" fill-opacity="1"><g transform="translate(211.740882, 343.846039)"><g><path d="M 16.96875 5.671875 L 23.15625 11.140625 L 17.25 17.03125 L 10.984375 11.578125 Z M 27.21875 0 C 25.644531 0 24.191406 -0.316406 22.859375 -0.953125 C 21.535156 -1.597656 20.503906 -2.4375 19.765625 -3.46875 C 19.273438 -2.53125 18.570312 -1.71875 17.65625 -1.03125 C 16.75 -0.34375 15.78125 0 14.75 0 L 11.875 0 C 9.507812 0 7.488281 -0.648438 5.8125 -1.953125 C 4.144531 -3.253906 3.3125 -4.84375 3.3125 -6.71875 L 3.3125 -27.21875 C 5.675781 -27.21875 7.691406 -26.566406 9.359375 -25.265625 C 11.035156 -23.960938 11.875 -22.375 11.875 -20.5 L 11.875 -9.65625 C 11.875 -8.726562 12.191406 -7.941406 12.828125 -7.296875 C 13.472656 -6.660156 14.257812 -6.34375 15.1875 -6.34375 L 18.65625 -6.34375 L 18.65625 -27.21875 L 27.21875 -25 L 27.21875 -9.65625 C 27.21875 -8.726562 27.535156 -7.941406 28.171875 -7.296875 C 28.804688 -6.660156 29.59375 -6.34375 30.53125 -6.34375 L 35.84375 -6.34375 C 35.84375 -5.3125 35.570312 -4.300781 35.03125 -3.3125 C 34.488281 -2.332031 33.785156 -1.535156 32.921875 -0.921875 C 32.066406 -0.304688 31.125 0 30.09375 0 Z M 27.21875 0 "/></g></g></g><g fill="#d9d9d9" fill-opacity="1"><g transform="translate(240.351828, 343.846039)"><g><path d="M 22.71875 -43.296875 L 28.90625 -37.828125 L 23.015625 -31.859375 L 16.734375 -37.3125 Z M 9.296875 -43.296875 L 15.484375 -37.828125 L 9.59375 -31.859375 L 3.3125 -37.3125 Z M 11.71875 -12.6875 L 11.71875 -9.734375 C 11.71875 -8.796875 12.050781 -7.992188 12.71875 -7.328125 C 13.382812 -6.671875 14.1875 -6.34375 15.125 -6.34375 L 19.625 -6.34375 L 19.625 -27.28125 L 28.171875 -25.078125 L 28.171875 -9.734375 C 28.171875 -8.796875 28.476562 -7.992188 29.09375 -7.328125 C 29.707031 -6.671875 30.484375 -6.34375 31.421875 -6.34375 L 36.796875 -6.34375 C 36.796875 -4.769531 36.226562 -3.316406 35.09375 -1.984375 C 33.96875 -0.660156 32.617188 0 31.046875 0 L 28.171875 0 C 26.546875 0 25.066406 -0.316406 23.734375 -0.953125 C 22.410156 -1.597656 21.382812 -2.460938 20.65625 -3.546875 C 20.15625 -2.554688 19.453125 -1.71875 18.546875 -1.03125 C 17.640625 -0.34375 16.644531 0 15.5625 0 L 9.953125 0 C 8.140625 0 6.578125 -0.648438 5.265625 -1.953125 C 3.960938 -3.253906 3.3125 -4.84375 3.3125 -6.71875 L 3.3125 -15.5625 C 3.3125 -17.914062 3.925781 -19.953125 5.15625 -21.671875 C 6.382812 -23.398438 7.984375 -24.804688 9.953125 -25.890625 C 11.921875 -26.972656 13.960938 -27.707031 16.078125 -28.09375 L 19.25 -23.828125 C 16.59375 -22.546875 14.671875 -21.128906 13.484375 -19.578125 C 12.304688 -18.023438 11.71875 -15.726562 11.71875 -12.6875 Z M 11.71875 -12.6875 "/></g></g></g><g fill="#d9d9d9" fill-opacity="1"><g transform="translate(269.921383, 343.846039)"><g><path d="M 18.953125 -18.21875 C 18.953125 -19.738281 18.679688 -21.039062 18.140625 -22.125 C 17.597656 -23.207031 16.492188 -23.75 14.828125 -23.75 L 11.875 -21.390625 L 11.875 -6.71875 C 11.875 -4.84375 11.035156 -3.253906 9.359375 -1.953125 C 7.691406 -0.648438 5.675781 0 3.3125 0 L 0 0 L 3.3125 -6.34375 L 3.3125 -25 L 11.875 -27.21875 L 11.875 -24.625 C 12.65625 -25.613281 13.570312 -26.4375 14.625 -27.09375 C 15.6875 -27.757812 16.8125 -28.09375 18 -28.09375 C 20.550781 -28.09375 22.625 -27.414062 24.21875 -26.0625 C 25.820312 -24.71875 26.921875 -23.0625 27.515625 -21.09375 Z M 18.953125 -18.21875 "/></g></g></g><g fill="#d9d9d9" fill-opacity="1"><g transform="translate(294.476596, 343.846039)"><g><path d="M 11.875 -12.6875 L 11.875 -9.65625 C 11.875 -8.726562 12.191406 -7.941406 12.828125 -7.296875 C 13.472656 -6.660156 14.257812 -6.34375 15.1875 -6.34375 L 19.625 -6.34375 L 19.625 -44.390625 L 28.171875 -42.1875 L 28.171875 -9.65625 C 28.171875 -8.726562 28.488281 -7.941406 29.125 -7.296875 C 29.769531 -6.660156 30.554688 -6.34375 31.484375 -6.34375 L 36.796875 -6.34375 C 36.796875 -5.3125 36.523438 -4.300781 35.984375 -3.3125 C 35.441406 -2.332031 34.738281 -1.535156 33.875 -0.921875 C 33.019531 -0.304688 32.078125 0 31.046875 0 L 28.171875 0 C 26.546875 0 25.066406 -0.328125 23.734375 -0.984375 C 22.410156 -1.648438 21.382812 -2.503906 20.65625 -3.546875 C 20.15625 -2.554688 19.453125 -1.71875 18.546875 -1.03125 C 17.640625 -0.34375 16.644531 0 15.5625 0 L 9.953125 0 C 8.140625 0 6.578125 -0.660156 5.265625 -1.984375 C 3.960938 -3.316406 3.3125 -4.894531 3.3125 -6.71875 L 3.3125 -15.484375 C 3.3125 -17.847656 3.925781 -19.890625 5.15625 -21.609375 C 6.382812 -23.328125 7.984375 -24.726562 9.953125 -25.8125 C 11.921875 -26.894531 13.960938 -27.632812 16.078125 -28.03125 L 19.25 -23.75 C 16.6875 -22.519531 14.816406 -21.128906 13.640625 -19.578125 C 12.460938 -18.023438 11.875 -15.726562 11.875 -12.6875 Z M 11.875 -12.6875 "/></g></g></g></svg>